<mxfile host="app.diagrams.net" agent="Mozilla/5.0 (Windows NT 10.0; Win64; x64) AppleWebKit/537.36 (KHTML, like Gecko) Chrome/136.0.0.0 Safari/537.36" version="27.1.1">
  <diagram name="Page-1" id="5fqSXnPYlE_yefe6b33Q">
    <mxGraphModel dx="1426" dy="777" grid="1" gridSize="10" guides="1" tooltips="1" connect="1" arrows="1" fold="1" page="1" pageScale="1" pageWidth="827" pageHeight="1169" math="0" shadow="0">
      <root>
        <mxCell id="0" />
        <mxCell id="1" parent="0" />
        <mxCell id="NlqaMoGFWe_igbSuRG1a-1" value="Patient" style="shape=umlActor;verticalLabelPosition=bottom;verticalAlign=top;html=1;outlineConnect=0;" parent="1" vertex="1">
          <mxGeometry x="120" y="440" width="30" height="60" as="geometry" />
        </mxCell>
        <mxCell id="NlqaMoGFWe_igbSuRG1a-2" value="Clinician" style="shape=umlActor;verticalLabelPosition=bottom;verticalAlign=top;html=1;outlineConnect=0;" parent="1" vertex="1">
          <mxGeometry x="120" y="650" width="30" height="60" as="geometry" />
        </mxCell>
        <mxCell id="NlqaMoGFWe_igbSuRG1a-3" value="EMR System" style="shape=umlActor;verticalLabelPosition=bottom;verticalAlign=top;html=1;outlineConnect=0;" parent="1" vertex="1">
          <mxGeometry x="640" y="770" width="30" height="60" as="geometry" />
        </mxCell>
        <mxCell id="NlqaMoGFWe_igbSuRG1a-4" value="Administrator" style="shape=umlActor;verticalLabelPosition=bottom;verticalAlign=top;html=1;outlineConnect=0;" parent="1" vertex="1">
          <mxGeometry x="630" y="400" width="30" height="60" as="geometry" />
        </mxCell>
        <mxCell id="NlqaMoGFWe_igbSuRG1a-5" value="SMS Gateway" style="shape=umlActor;verticalLabelPosition=bottom;verticalAlign=top;html=1;outlineConnect=0;" parent="1" vertex="1">
          <mxGeometry x="640" y="660" width="30" height="60" as="geometry" />
        </mxCell>
        <mxCell id="NlqaMoGFWe_igbSuRG1a-7" value="" style="rounded=0;whiteSpace=wrap;html=1;" parent="1" vertex="1">
          <mxGeometry x="230" y="150" width="340" height="800" as="geometry" />
        </mxCell>
        <mxCell id="NlqaMoGFWe_igbSuRG1a-8" value="Register Profile" style="ellipse;whiteSpace=wrap;html=1;" parent="1" vertex="1">
          <mxGeometry x="280" y="480" width="80" height="60" as="geometry" />
        </mxCell>
        <mxCell id="NlqaMoGFWe_igbSuRG1a-30" value="" style="edgeStyle=orthogonalEdgeStyle;rounded=0;orthogonalLoop=1;jettySize=auto;html=1;dashed=1;" parent="1" source="NlqaMoGFWe_igbSuRG1a-9" target="NlqaMoGFWe_igbSuRG1a-27" edge="1">
          <mxGeometry relative="1" as="geometry" />
        </mxCell>
        <mxCell id="NlqaMoGFWe_igbSuRG1a-31" value="&amp;lt;&amp;lt;include&amp;gt;&amp;gt;" style="edgeLabel;html=1;align=center;verticalAlign=middle;resizable=0;points=[];" parent="NlqaMoGFWe_igbSuRG1a-30" vertex="1" connectable="0">
          <mxGeometry x="-0.05" y="-3" relative="1" as="geometry">
            <mxPoint as="offset" />
          </mxGeometry>
        </mxCell>
        <mxCell id="NlqaMoGFWe_igbSuRG1a-9" value="Log In" style="ellipse;whiteSpace=wrap;html=1;" parent="1" vertex="1">
          <mxGeometry x="360" y="540" width="80" height="60" as="geometry" />
        </mxCell>
        <mxCell id="NlqaMoGFWe_igbSuRG1a-10" value="Log Out" style="ellipse;whiteSpace=wrap;html=1;" parent="1" vertex="1">
          <mxGeometry x="360" y="620" width="80" height="60" as="geometry" />
        </mxCell>
        <mxCell id="NlqaMoGFWe_igbSuRG1a-11" value="Request Appointment" style="ellipse;whiteSpace=wrap;html=1;" parent="1" vertex="1">
          <mxGeometry x="260" y="270" width="80" height="60" as="geometry" />
        </mxCell>
        <mxCell id="NlqaMoGFWe_igbSuRG1a-12" value="Check In" style="ellipse;whiteSpace=wrap;html=1;" parent="1" vertex="1">
          <mxGeometry x="260" y="340" width="80" height="60" as="geometry" />
        </mxCell>
        <mxCell id="NlqaMoGFWe_igbSuRG1a-13" value="View Notifications" style="ellipse;whiteSpace=wrap;html=1;" parent="1" vertex="1">
          <mxGeometry x="260" y="410" width="80" height="60" as="geometry" />
        </mxCell>
        <mxCell id="NlqaMoGFWe_igbSuRG1a-14" value="Submit Feedback" style="ellipse;whiteSpace=wrap;html=1;" parent="1" vertex="1">
          <mxGeometry x="260" y="200" width="80" height="60" as="geometry" />
        </mxCell>
        <mxCell id="NlqaMoGFWe_igbSuRG1a-15" value="Update Availability" style="ellipse;whiteSpace=wrap;html=1;" parent="1" vertex="1">
          <mxGeometry x="260" y="680" width="80" height="60" as="geometry" />
        </mxCell>
        <mxCell id="NlqaMoGFWe_igbSuRG1a-16" value="View feedback" style="ellipse;whiteSpace=wrap;html=1;" parent="1" vertex="1">
          <mxGeometry x="260" y="816" width="80" height="60" as="geometry" />
        </mxCell>
        <mxCell id="NlqaMoGFWe_igbSuRG1a-17" value="Configure Slots" style="ellipse;whiteSpace=wrap;html=1;" parent="1" vertex="1">
          <mxGeometry x="480" y="167" width="80" height="60" as="geometry" />
        </mxCell>
        <mxCell id="NlqaMoGFWe_igbSuRG1a-18" value="Manage Users" style="ellipse;whiteSpace=wrap;html=1;" parent="1" vertex="1">
          <mxGeometry x="460" y="300" width="80" height="60" as="geometry" />
        </mxCell>
        <mxCell id="NlqaMoGFWe_igbSuRG1a-19" value="Generate Reports" style="ellipse;whiteSpace=wrap;html=1;" parent="1" vertex="1">
          <mxGeometry x="460" y="434" width="80" height="60" as="geometry" />
        </mxCell>
        <mxCell id="NlqaMoGFWe_igbSuRG1a-20" value="Send SMS" style="ellipse;whiteSpace=wrap;html=1;" parent="1" vertex="1">
          <mxGeometry x="444" y="665" width="80" height="60" as="geometry" />
        </mxCell>
        <mxCell id="NlqaMoGFWe_igbSuRG1a-21" value="Provide Patient Record" style="ellipse;whiteSpace=wrap;html=1;" parent="1" vertex="1">
          <mxGeometry x="444" y="760" width="80" height="60" as="geometry" />
        </mxCell>
        <mxCell id="NlqaMoGFWe_igbSuRG1a-22" value="Receive Visits Update" style="ellipse;whiteSpace=wrap;html=1;" parent="1" vertex="1">
          <mxGeometry x="444" y="840" width="80" height="60" as="geometry" />
        </mxCell>
        <mxCell id="NlqaMoGFWe_igbSuRG1a-24" value="Clinic Operations Coordination System" style="text;strokeColor=none;align=center;fillColor=none;html=1;verticalAlign=middle;whiteSpace=wrap;rounded=0;" parent="1" vertex="1">
          <mxGeometry x="315" y="158" width="170" height="30" as="geometry" />
        </mxCell>
        <mxCell id="NlqaMoGFWe_igbSuRG1a-27" value="Authentication" style="ellipse;whiteSpace=wrap;html=1;" parent="1" vertex="1">
          <mxGeometry x="360" y="380" width="80" height="60" as="geometry" />
        </mxCell>
        <mxCell id="NlqaMoGFWe_igbSuRG1a-34" value="" style="endArrow=none;html=1;rounded=0;exitX=0.5;exitY=0.5;exitDx=0;exitDy=0;exitPerimeter=0;entryX=0;entryY=0.5;entryDx=0;entryDy=0;" parent="1" source="NlqaMoGFWe_igbSuRG1a-1" target="NlqaMoGFWe_igbSuRG1a-14" edge="1">
          <mxGeometry width="50" height="50" relative="1" as="geometry">
            <mxPoint x="140" y="430" as="sourcePoint" />
            <mxPoint x="190" y="380" as="targetPoint" />
          </mxGeometry>
        </mxCell>
        <mxCell id="NlqaMoGFWe_igbSuRG1a-35" value="" style="endArrow=none;html=1;rounded=0;exitX=0.5;exitY=0.5;exitDx=0;exitDy=0;exitPerimeter=0;entryX=0;entryY=0.5;entryDx=0;entryDy=0;" parent="1" source="NlqaMoGFWe_igbSuRG1a-1" target="NlqaMoGFWe_igbSuRG1a-11" edge="1">
          <mxGeometry width="50" height="50" relative="1" as="geometry">
            <mxPoint x="170" y="440" as="sourcePoint" />
            <mxPoint x="220" y="390" as="targetPoint" />
          </mxGeometry>
        </mxCell>
        <mxCell id="NlqaMoGFWe_igbSuRG1a-36" value="" style="endArrow=none;html=1;rounded=0;exitX=0.5;exitY=0.5;exitDx=0;exitDy=0;exitPerimeter=0;entryX=0;entryY=0.5;entryDx=0;entryDy=0;" parent="1" source="NlqaMoGFWe_igbSuRG1a-1" target="NlqaMoGFWe_igbSuRG1a-12" edge="1">
          <mxGeometry width="50" height="50" relative="1" as="geometry">
            <mxPoint x="180" y="425" as="sourcePoint" />
            <mxPoint x="230" y="375" as="targetPoint" />
          </mxGeometry>
        </mxCell>
        <mxCell id="NlqaMoGFWe_igbSuRG1a-37" value="" style="endArrow=none;html=1;rounded=0;exitX=0.5;exitY=0.5;exitDx=0;exitDy=0;exitPerimeter=0;entryX=0;entryY=0.5;entryDx=0;entryDy=0;" parent="1" source="NlqaMoGFWe_igbSuRG1a-1" target="NlqaMoGFWe_igbSuRG1a-13" edge="1">
          <mxGeometry width="50" height="50" relative="1" as="geometry">
            <mxPoint x="190" y="450" as="sourcePoint" />
            <mxPoint x="240" y="400" as="targetPoint" />
          </mxGeometry>
        </mxCell>
        <mxCell id="NlqaMoGFWe_igbSuRG1a-38" value="" style="endArrow=none;html=1;rounded=0;exitX=0.5;exitY=0.5;exitDx=0;exitDy=0;exitPerimeter=0;entryX=0;entryY=0.5;entryDx=0;entryDy=0;" parent="1" source="NlqaMoGFWe_igbSuRG1a-1" target="NlqaMoGFWe_igbSuRG1a-9" edge="1">
          <mxGeometry width="50" height="50" relative="1" as="geometry">
            <mxPoint x="240" y="535" as="sourcePoint" />
            <mxPoint x="290" y="485" as="targetPoint" />
          </mxGeometry>
        </mxCell>
        <mxCell id="NlqaMoGFWe_igbSuRG1a-39" value="" style="endArrow=none;html=1;rounded=0;exitX=0.5;exitY=0.5;exitDx=0;exitDy=0;exitPerimeter=0;entryX=0;entryY=0.5;entryDx=0;entryDy=0;" parent="1" source="NlqaMoGFWe_igbSuRG1a-1" target="NlqaMoGFWe_igbSuRG1a-10" edge="1">
          <mxGeometry width="50" height="50" relative="1" as="geometry">
            <mxPoint x="240" y="560" as="sourcePoint" />
            <mxPoint x="290" y="510" as="targetPoint" />
          </mxGeometry>
        </mxCell>
        <mxCell id="NlqaMoGFWe_igbSuRG1a-40" value="" style="endArrow=none;html=1;rounded=0;entryX=0.5;entryY=0.5;entryDx=0;entryDy=0;entryPerimeter=0;exitX=1;exitY=0.5;exitDx=0;exitDy=0;" parent="1" source="NlqaMoGFWe_igbSuRG1a-17" target="NlqaMoGFWe_igbSuRG1a-4" edge="1">
          <mxGeometry width="50" height="50" relative="1" as="geometry">
            <mxPoint x="560" y="480" as="sourcePoint" />
            <mxPoint x="610" y="430" as="targetPoint" />
          </mxGeometry>
        </mxCell>
        <mxCell id="NlqaMoGFWe_igbSuRG1a-41" value="" style="endArrow=none;html=1;rounded=0;entryX=0.5;entryY=0.5;entryDx=0;entryDy=0;entryPerimeter=0;exitX=1;exitY=0.667;exitDx=0;exitDy=0;exitPerimeter=0;" parent="1" source="NlqaMoGFWe_igbSuRG1a-18" target="NlqaMoGFWe_igbSuRG1a-4" edge="1">
          <mxGeometry width="50" height="50" relative="1" as="geometry">
            <mxPoint x="550" y="490" as="sourcePoint" />
            <mxPoint x="600" y="440" as="targetPoint" />
          </mxGeometry>
        </mxCell>
        <mxCell id="NlqaMoGFWe_igbSuRG1a-42" value="" style="endArrow=none;html=1;rounded=0;entryX=0.5;entryY=0.5;entryDx=0;entryDy=0;entryPerimeter=0;exitX=1;exitY=0.5;exitDx=0;exitDy=0;" parent="1" source="NlqaMoGFWe_igbSuRG1a-19" target="NlqaMoGFWe_igbSuRG1a-4" edge="1">
          <mxGeometry width="50" height="50" relative="1" as="geometry">
            <mxPoint x="540" y="490" as="sourcePoint" />
            <mxPoint x="590" y="440" as="targetPoint" />
          </mxGeometry>
        </mxCell>
        <mxCell id="NlqaMoGFWe_igbSuRG1a-43" value="" style="endArrow=none;html=1;rounded=0;entryX=0.5;entryY=0.5;entryDx=0;entryDy=0;entryPerimeter=0;exitX=1;exitY=0.5;exitDx=0;exitDy=0;" parent="1" source="NlqaMoGFWe_igbSuRG1a-9" target="NlqaMoGFWe_igbSuRG1a-4" edge="1">
          <mxGeometry width="50" height="50" relative="1" as="geometry">
            <mxPoint x="550" y="520" as="sourcePoint" />
            <mxPoint x="600" y="470" as="targetPoint" />
          </mxGeometry>
        </mxCell>
        <mxCell id="NlqaMoGFWe_igbSuRG1a-44" value="" style="endArrow=none;html=1;rounded=0;entryX=0.5;entryY=0.5;entryDx=0;entryDy=0;entryPerimeter=0;exitX=1;exitY=0.5;exitDx=0;exitDy=0;" parent="1" source="NlqaMoGFWe_igbSuRG1a-10" target="NlqaMoGFWe_igbSuRG1a-4" edge="1">
          <mxGeometry width="50" height="50" relative="1" as="geometry">
            <mxPoint x="500" y="535" as="sourcePoint" />
            <mxPoint x="550" y="485" as="targetPoint" />
          </mxGeometry>
        </mxCell>
        <mxCell id="NlqaMoGFWe_igbSuRG1a-45" value="" style="endArrow=none;html=1;rounded=0;exitX=0.5;exitY=0.5;exitDx=0;exitDy=0;exitPerimeter=0;entryX=0;entryY=1;entryDx=0;entryDy=0;" parent="1" source="NlqaMoGFWe_igbSuRG1a-2" target="NlqaMoGFWe_igbSuRG1a-9" edge="1">
          <mxGeometry width="50" height="50" relative="1" as="geometry">
            <mxPoint x="260" y="625" as="sourcePoint" />
            <mxPoint x="310" y="575" as="targetPoint" />
          </mxGeometry>
        </mxCell>
        <mxCell id="NlqaMoGFWe_igbSuRG1a-46" value="" style="endArrow=none;html=1;rounded=0;entryX=0;entryY=1;entryDx=0;entryDy=0;exitX=0.5;exitY=0.5;exitDx=0;exitDy=0;exitPerimeter=0;" parent="1" source="NlqaMoGFWe_igbSuRG1a-2" target="NlqaMoGFWe_igbSuRG1a-10" edge="1">
          <mxGeometry width="50" height="50" relative="1" as="geometry">
            <mxPoint x="180" y="665" as="sourcePoint" />
            <mxPoint x="230" y="615" as="targetPoint" />
          </mxGeometry>
        </mxCell>
        <mxCell id="NlqaMoGFWe_igbSuRG1a-47" value="" style="endArrow=none;html=1;rounded=0;exitX=0.5;exitY=0.5;exitDx=0;exitDy=0;exitPerimeter=0;entryX=0;entryY=0.5;entryDx=0;entryDy=0;" parent="1" source="NlqaMoGFWe_igbSuRG1a-1" target="NlqaMoGFWe_igbSuRG1a-8" edge="1">
          <mxGeometry width="50" height="50" relative="1" as="geometry">
            <mxPoint x="230" y="520" as="sourcePoint" />
            <mxPoint x="280" y="470" as="targetPoint" />
          </mxGeometry>
        </mxCell>
        <mxCell id="NlqaMoGFWe_igbSuRG1a-48" value="" style="endArrow=none;html=1;rounded=0;exitX=0.5;exitY=0.5;exitDx=0;exitDy=0;exitPerimeter=0;entryX=0;entryY=0.5;entryDx=0;entryDy=0;" parent="1" source="NlqaMoGFWe_igbSuRG1a-2" target="NlqaMoGFWe_igbSuRG1a-15" edge="1">
          <mxGeometry width="50" height="50" relative="1" as="geometry">
            <mxPoint x="420" y="810" as="sourcePoint" />
            <mxPoint x="470" y="760" as="targetPoint" />
          </mxGeometry>
        </mxCell>
        <mxCell id="NlqaMoGFWe_igbSuRG1a-49" value="" style="endArrow=none;html=1;rounded=0;exitX=0.5;exitY=0.5;exitDx=0;exitDy=0;exitPerimeter=0;entryX=0;entryY=0.5;entryDx=0;entryDy=0;" parent="1" source="NlqaMoGFWe_igbSuRG1a-2" target="NlqaMoGFWe_igbSuRG1a-16" edge="1">
          <mxGeometry width="50" height="50" relative="1" as="geometry">
            <mxPoint x="315" y="800" as="sourcePoint" />
            <mxPoint x="365" y="750" as="targetPoint" />
          </mxGeometry>
        </mxCell>
        <mxCell id="NlqaMoGFWe_igbSuRG1a-50" value="" style="endArrow=none;html=1;rounded=0;entryX=0.5;entryY=0.5;entryDx=0;entryDy=0;entryPerimeter=0;exitX=1;exitY=0.5;exitDx=0;exitDy=0;" parent="1" source="NlqaMoGFWe_igbSuRG1a-20" target="NlqaMoGFWe_igbSuRG1a-5" edge="1">
          <mxGeometry width="50" height="50" relative="1" as="geometry">
            <mxPoint x="540" y="715" as="sourcePoint" />
            <mxPoint x="590" y="665" as="targetPoint" />
          </mxGeometry>
        </mxCell>
        <mxCell id="NlqaMoGFWe_igbSuRG1a-51" value="" style="endArrow=none;html=1;rounded=0;entryX=0.5;entryY=0.5;entryDx=0;entryDy=0;entryPerimeter=0;exitX=0.95;exitY=0.667;exitDx=0;exitDy=0;exitPerimeter=0;" parent="1" source="NlqaMoGFWe_igbSuRG1a-21" target="NlqaMoGFWe_igbSuRG1a-3" edge="1">
          <mxGeometry width="50" height="50" relative="1" as="geometry">
            <mxPoint x="540" y="840" as="sourcePoint" />
            <mxPoint x="590" y="790" as="targetPoint" />
          </mxGeometry>
        </mxCell>
        <mxCell id="NlqaMoGFWe_igbSuRG1a-52" value="" style="endArrow=none;html=1;rounded=0;entryX=0.5;entryY=0.5;entryDx=0;entryDy=0;entryPerimeter=0;exitX=1;exitY=0.5;exitDx=0;exitDy=0;" parent="1" source="NlqaMoGFWe_igbSuRG1a-22" target="NlqaMoGFWe_igbSuRG1a-3" edge="1">
          <mxGeometry width="50" height="50" relative="1" as="geometry">
            <mxPoint x="550" y="870" as="sourcePoint" />
            <mxPoint x="600" y="820" as="targetPoint" />
          </mxGeometry>
        </mxCell>
        <mxCell id="NlqaMoGFWe_igbSuRG1a-53" style="edgeStyle=orthogonalEdgeStyle;rounded=0;orthogonalLoop=1;jettySize=auto;html=1;exitX=0.5;exitY=1;exitDx=0;exitDy=0;" parent="1" source="NlqaMoGFWe_igbSuRG1a-7" target="NlqaMoGFWe_igbSuRG1a-7" edge="1">
          <mxGeometry relative="1" as="geometry" />
        </mxCell>
        <mxCell id="M8bL-lGc3PYc45UvdtUu-1" value="View Appointments" style="ellipse;whiteSpace=wrap;html=1;" vertex="1" parent="1">
          <mxGeometry x="260" y="883" width="80" height="60" as="geometry" />
        </mxCell>
        <mxCell id="M8bL-lGc3PYc45UvdtUu-2" value="" style="endArrow=none;html=1;rounded=0;exitX=0.5;exitY=0.5;exitDx=0;exitDy=0;exitPerimeter=0;entryX=0;entryY=0.5;entryDx=0;entryDy=0;" edge="1" parent="1" source="NlqaMoGFWe_igbSuRG1a-2" target="M8bL-lGc3PYc45UvdtUu-1">
          <mxGeometry width="50" height="50" relative="1" as="geometry">
            <mxPoint x="420" y="770" as="sourcePoint" />
            <mxPoint x="470" y="720" as="targetPoint" />
          </mxGeometry>
        </mxCell>
        <mxCell id="M8bL-lGc3PYc45UvdtUu-3" value="Write notes" style="ellipse;whiteSpace=wrap;html=1;" vertex="1" parent="1">
          <mxGeometry x="260" y="749" width="80" height="60" as="geometry" />
        </mxCell>
        <mxCell id="M8bL-lGc3PYc45UvdtUu-4" value="" style="endArrow=none;html=1;rounded=0;entryX=0;entryY=0.5;entryDx=0;entryDy=0;" edge="1" parent="1" target="M8bL-lGc3PYc45UvdtUu-3">
          <mxGeometry width="50" height="50" relative="1" as="geometry">
            <mxPoint x="140" y="680" as="sourcePoint" />
            <mxPoint x="470" y="720" as="targetPoint" />
          </mxGeometry>
        </mxCell>
        <mxCell id="M8bL-lGc3PYc45UvdtUu-5" value="Manage records" style="ellipse;whiteSpace=wrap;html=1;" vertex="1" parent="1">
          <mxGeometry x="458" y="367" width="80" height="60" as="geometry" />
        </mxCell>
        <mxCell id="M8bL-lGc3PYc45UvdtUu-6" value="Change Settings" style="ellipse;whiteSpace=wrap;html=1;" vertex="1" parent="1">
          <mxGeometry x="466" y="233" width="80" height="60" as="geometry" />
        </mxCell>
        <mxCell id="M8bL-lGc3PYc45UvdtUu-7" value="" style="endArrow=none;html=1;rounded=0;entryX=0.5;entryY=0.5;entryDx=0;entryDy=0;entryPerimeter=0;exitX=1;exitY=0.5;exitDx=0;exitDy=0;" edge="1" parent="1" source="M8bL-lGc3PYc45UvdtUu-6" target="NlqaMoGFWe_igbSuRG1a-4">
          <mxGeometry width="50" height="50" relative="1" as="geometry">
            <mxPoint x="420" y="570" as="sourcePoint" />
            <mxPoint x="470" y="520" as="targetPoint" />
          </mxGeometry>
        </mxCell>
        <mxCell id="M8bL-lGc3PYc45UvdtUu-8" value="" style="endArrow=none;html=1;rounded=0;entryX=0.5;entryY=0.5;entryDx=0;entryDy=0;entryPerimeter=0;exitX=1;exitY=0.5;exitDx=0;exitDy=0;" edge="1" parent="1" source="M8bL-lGc3PYc45UvdtUu-5" target="NlqaMoGFWe_igbSuRG1a-4">
          <mxGeometry width="50" height="50" relative="1" as="geometry">
            <mxPoint x="420" y="570" as="sourcePoint" />
            <mxPoint x="470" y="520" as="targetPoint" />
          </mxGeometry>
        </mxCell>
      </root>
    </mxGraphModel>
  </diagram>
</mxfile>
